<svg xmlns="http://www.w3.org/2000/svg" viewBox="0 0 120 120" width="120" height="120">
  <g fill="#f5f5f7">
    <!-- N -->
    <polygon points="20,90 20,30 33,30 33,90"/>
    <polygon points="20,30 33,30 80,90 67,90"/>
    <polygon points="67,90 67,58 80,58 80,90"/>
    <!-- dispersing dots -->
    <circle cx="73" cy="46" r="3.4"/>
    <circle cx="84" cy="40" r="3.0"/>
    <circle cx="78" cy="32" r="2.6"/>
    <circle cx="90" cy="30" r="2.4"/>
    <circle cx="86" cy="22" r="2.0" opacity="0.9"/>
    <circle cx="96" cy="38" r="2.0" opacity="0.85"/>
    <circle cx="98" cy="24" r="1.7" opacity="0.8"/>
    <circle cx="92" cy="46" r="1.6" opacity="0.75"/>
    <circle cx="100" cy="32" r="1.4" opacity="0.7"/>
    <circle cx="105" cy="40" r="1.2" opacity="0.6"/>
    <circle cx="94" cy="16" r="1.3" opacity="0.6"/>
    <circle cx="104" cy="22" r="1.1" opacity="0.5"/>
    <circle cx="110" cy="30" r="0.9" opacity="0.45"/>
    <circle cx="100" cy="14" r="0.9" opacity="0.4"/>
  </g>
</svg>
